<?xml version="1.0" standalone="no"?>
<!DOCTYPE svg PUBLIC "-//W3C//DTD SVG 20010904//EN"
 "http://www.w3.org/TR/2001/REC-SVG-20010904/DTD/svg10.dtd">
<svg version="1.0" xmlns="http://www.w3.org/2000/svg"
 width="252.000000pt" height="256.000000pt" viewBox="0 0 252.000000 256.000000"
 preserveAspectRatio="xMidYMid meet">

<g transform="translate(0.000000,256.000000) scale(0.100000,-0.100000)"
fill="#000000" stroke="none">
<path d="M1315 2460 c33 -4 74 -10 90 -14 27 -6 27 -5 -5 8 -19 8 -60 14 -90
14 l-55 -1 60 -7z"/>
<path d="M1125 2450 c-13 -6 -1 -7 35 -3 30 3 57 7 59 9 9 8 -75 2 -94 -6z"/>
<path d="M937 2385 c-91 -40 -197 -101 -197 -112 0 -2 24 9 53 27 28 17 81 44
117 61 104 47 146 68 135 68 -5 0 -54 -20 -108 -44z"/>
<path d="M1250 2415 c-8 -10 -8 -19 0 -35 10 -19 9 -21 -7 -19 -46 7 -244 -58
-276 -90 -6 -6 -20 -11 -32 -11 -43 0 -326 -211 -338 -253 -4 -14 -11 -16 -31
-11 -21 5 -25 3 -20 -9 4 -11 -4 -22 -24 -34 -28 -17 -132 -138 -132 -154 0
-4 -12 -15 -28 -24 -40 -24 -72 -78 -72 -124 0 -23 -8 -48 -20 -64 -22 -27
-26 -47 -10 -47 16 0 11 -62 -9 -107 -11 -23 -22 -63 -25 -90 -3 -26 -9 -75
-13 -108 l-7 -60 -8 45 c-5 25 -10 99 -10 165 -1 107 2 128 26 199 32 91 92
221 132 286 16 26 21 39 11 32 -23 -19 -120 -220 -151 -312 -36 -109 -40 -175
-22 -336 21 -180 36 -239 88 -341 l41 -82 46 25 c129 70 132 73 117 102 -22
45 -40 162 -39 257 2 105 36 251 78 335 64 127 198 310 227 310 5 0 31 -15 58
-34 27 -19 89 -47 137 -63 85 -29 90 -29 153 -16 36 7 130 25 210 40 l145 26
100 -17 c55 -9 145 -28 199 -41 121 -31 178 -33 170 -7 -3 9 9 -10 27 -43 18
-33 37 -79 43 -103 21 -79 31 -46 37 116 3 87 11 167 16 177 9 15 4 33 -23 87
-22 43 -39 66 -46 62 -7 -4 -8 -3 -4 4 14 23 -14 48 -49 44 -29 -3 -33 -1 -38
25 -8 42 -69 128 -90 127 -9 -1 -15 2 -12 6 16 25 -134 29 -171 5 -24 -15 -24
-15 -50 38 -24 49 -29 53 -57 49 -20 -3 -33 0 -39 12 -5 9 -22 16 -39 16 -25
0 -29 3 -24 19 3 10 0 23 -7 28 -19 16 -125 14 -138 -2z m134 -10 c2 -7 -7
-31 -21 -53 -23 -35 -29 -39 -43 -29 -28 20 -72 76 -66 85 9 15 124 12 130 -3z
m-64 -105 c0 -16 -68 -62 -87 -58 -12 2 -18 12 -18 30 0 14 -3 30 -7 34 -12
12 -9 42 5 47 15 5 107 -40 107 -53z m125 28 c1 -15 4 -30 8 -34 13 -13 7 -44
-8 -44 -21 0 -68 25 -85 45 -12 14 -10 20 16 41 38 31 69 28 69 -8z m-75 -70
c40 -45 40 -69 -2 -67 -18 0 -43 -2 -55 -6 -36 -11 -40 19 -9 65 14 22 29 40
31 40 3 0 19 -15 35 -32z"/>
<path d="M1500 2420 c8 -5 38 -17 65 -26 42 -14 110 -47 150 -73 6 -3 -12 -9
-40 -12 l-50 -6 56 0 c30 0 61 -3 67 -7 7 -4 12 -5 12 -3 0 14 -127 89 -188
111 -77 28 -97 32 -72 16z"/>
<path d="M1565 2335 c4 -11 10 -28 12 -37 6 -20 12 -22 31 -10 9 6 3 16 -20
38 -24 23 -29 25 -23 9z"/>
<path d="M610 2176 c-47 -41 -110 -100 -140 -132 -35 -36 -17 -23 50 38 58 52
123 111 145 131 72 66 32 38 -55 -37z"/>
<path d="M1897 2140 c3 -11 9 -20 15 -20 5 0 4 9 -2 20 -6 11 -12 20 -14 20
-2 0 -2 -9 1 -20z"/>
<path d="M2062 1876 c-12 -27 -17 -323 -7 -374 10 -43 25 -51 25 -13 0 20 11
44 32 68 18 21 23 30 12 21 -11 -10 -28 -18 -37 -18 -21 0 -26 21 -26 110 0
77 10 103 36 93 11 -5 10 4 -7 37 -17 34 -20 48 -11 66 5 13 7 26 2 28 -4 3
-13 -5 -19 -18z"/>
<path d="M1698 1348 c5 -5 16 -8 23 -6 8 3 3 7 -10 11 -17 4 -21 3 -13 -5z"/>
<path d="M1025 1325 l-30 -14 30 6 c17 3 41 10 55 14 l25 7 -25 1 c-14 0 -38
-6 -55 -14z"/>
<path d="M1725 1121 c-76 -7 -103 -18 -133 -55 -25 -33 -25 -148 2 -174 16
-16 17 -16 7 11 -8 20 -8 34 0 48 10 20 11 20 24 2 13 -17 14 -17 32 0 31 28
46 22 41 -18 -2 -19 -3 -35 -1 -35 1 0 9 13 18 30 20 38 20 80 0 80 -18 0 -19
12 -3 28 10 10 10 17 -1 34 -12 20 -12 21 22 15 47 -7 87 -35 87 -60 0 -19 1
-19 19 -3 15 14 17 21 7 41 -6 13 -14 22 -17 19 -9 -5 -40 32 -32 39 3 4 4 6
2 5 -2 -1 -35 -4 -74 -7z"/>
<path d="M1882 1077 c-1 -27 -7 -58 -13 -70 -11 -20 -10 -21 5 -6 13 12 16 29
13 70 l-3 54 -2 -48z"/>
<path d="M939 1087 c9 -11 3 -18 -28 -32 -22 -10 -48 -15 -58 -11 -17 6 -17 5
-1 -7 16 -12 16 -16 2 -35 -8 -12 -22 -22 -30 -22 -8 0 -14 -7 -14 -15 0 -9 6
-12 15 -8 9 3 24 -2 35 -12 18 -16 18 -16 13 4 -6 25 18 56 60 78 28 14 28 14
17 -8 -20 -36 -7 -117 24 -147 14 -15 26 -21 26 -15 0 7 -4 15 -10 18 -13 8
-13 52 1 60 6 4 16 -1 23 -11 18 -23 50 -11 43 16 -6 24 1 25 32 4 18 -13 22
-23 18 -47 -4 -27 -3 -28 10 -12 19 27 18 89 -2 82 -22 -9 -31 14 -11 29 10 7
15 17 11 23 -11 18 8 12 48 -14 41 -28 45 -26 21 11 -24 36 -63 53 -157 70
-100 17 -102 17 -88 1z"/>
<path d="M493 1055 c0 -22 2 -30 4 -17 2 12 2 30 0 40 -3 9 -5 -1 -4 -23z"/>
<path d="M1330 1070 c-6 -11 -8 -20 -6 -20 3 0 10 9 16 20 6 11 8 20 6 20 -3
0 -10 -9 -16 -20z"/>
<path d="M500 949 c0 -5 5 -7 10 -4 6 3 10 8 10 11 0 2 -4 4 -10 4 -5 0 -10
-5 -10 -11z"/>
<path d="M380 742 c0 -4 22 -33 49 -63 48 -54 152 -121 166 -107 4 4 9 42 12
86 l6 79 -63 6 c-86 9 -170 9 -170 -1z"/>
<path d="M2074 630 c3 -14 6 -49 6 -78 l0 -53 29 16 c51 26 50 37 -14 110 -26
30 -26 30 -21 5z"/>
<path d="M2118 507 c-20 -18 -40 -46 -43 -62 -12 -51 -67 -195 -78 -202 -7 -4
-8 1 -3 13 10 25 29 144 24 150 -2 2 -19 -38 -38 -90 -18 -51 -41 -104 -52
-117 -17 -22 -17 -20 2 26 11 28 14 43 8 34 -47 -58 -72 -82 -106 -102 -21
-12 -67 -52 -101 -89 l-63 -68 426 0 426 0 0 149 c0 83 -4 152 -9 156 -5 3
-12 -3 -14 -12 -3 -12 -5 -9 -6 8 -1 27 -23 54 -34 42 -4 -3 -7 -18 -7 -32 0
-26 -1 -26 -16 5 -9 18 -27 43 -41 55 l-26 24 5 -32 c2 -18 1 -30 -3 -27 -4 2
-9 -4 -11 -13 -3 -13 -11 -5 -28 27 -14 27 -25 39 -28 31 -3 -10 -8 -7 -17 10
-13 23 -13 23 -20 -16 -11 -68 -17 -72 -30 -20 l-11 50 -15 -45 -14 -45 -5 90
c-4 72 -20 137 -33 135 -1 -1 -19 -15 -39 -33z"/>
<path d="M693 418 c-5 -7 -22 -49 -37 -93 -15 -44 -37 -93 -48 -109 -25 -34
-34 -103 -21 -143 6 -16 7 -38 2 -51 -7 -18 -5 -22 10 -22 16 0 19 12 24 95 6
91 28 165 48 165 5 0 9 -18 9 -40 0 -117 95 -188 218 -162 46 9 65 20 95 52
24 25 36 47 33 56 -3 9 -2 12 5 9 6 -4 8 4 4 22 -3 15 -2 22 1 15 11 -23 24
-1 24 41 0 56 -13 76 -28 43 -24 -52 -176 -56 -257 -6 -31 19 -32 22 -27 75 3
34 1 55 -6 55 -6 0 -17 2 -25 5 -7 3 -18 0 -24 -7z"/>
<path d="M1110 276 c0 -2 8 -10 18 -17 15 -13 16 -12 3 4 -13 16 -21 21 -21
13z"/>
<path d="M1073 115 c0 -22 2 -30 4 -17 2 12 2 30 0 40 -3 9 -5 -1 -4 -23z"/>
<path d="M1050 18 c0 -7 10 -14 21 -15 12 -1 20 -1 18 0 -2 2 -12 9 -21 16
-15 11 -18 11 -18 -1z"/>
</g>
</svg>
